<?xml version="1.0" encoding="UTF-8"?>
<svg xmlns="http://www.w3.org/2000/svg" version="2.0">
<polyline points=
"10.0,170.0
77.67,207.0
91.116,205.0
110.72800000000001,200.0
134.94400000000002,165.0
151.96200000000002,157.0
184.20800000000003,92.0
225.466,229.0
251.33,201.0
268.26,196.0
287.31399999999996,204.0
376.53999999999996,243.0
462.16799999999995,270.0
516.328,297.0
565.482,378.0
586.382,359.0
679.2779999999999,331.0
699.646,305.0
722.5559999999999,367.0
757.3599999999999,421.0
785.4399999999999,594.0
907.906,297.0
972.0939999999999,293.0
1079.01,266.0
1100.292,216.0
1119.4099999999999,196.0
1181.8559999999998,217.0
1213.6899999999998,213.0
1272.5099999999998,215.00000000000006
1272.5099999999998,650
10.0,650
10,170.0"
style="fill:white;stroke:red;stroke-width:4" />
</svg>
